# xmcd CD database file
# Copyright (C) 1997 Ti Kan
# 
# Track frame offsets:
#     150
#     28325
#     45845
#     70312
#     86027
#     107645
#     133477
#     153732
#     175975
#     192525
#     211265
#     232505
#     254605
# 
# Disc length: 3679 seconds
# 
# Revision: 1
# Processed by: cddbd v1.4b41PL1 Copyright (c) Steve Scherf et al.
# Submitted via: DiscPlay 4.0.3
# 
DISCID=ba0e5d0d
DTITLE=Tom Pacheco - Woodstock Winter
DYEAR=1900
DGENRE=
TTITLE0=The hills of Woodstock
TTITLE1=A woman stear
TTITLE2=The Scared
TTITLE3=She's a smart woman
TTITLE4=Real americans?
TTITLE5=Four angels
TTITLE6=Hey hey Robert Johnson
TTITLE7=Christmas on times square
TTITLE8=Come
TTITLE9=Jerry's gone
TTITLE10=The snowstorm
TTITLE11=Nobody ever killed Billy the kids
TTITLE12=This moment
EXTD=
EXTT0=
EXTT1=
EXTT2=
EXTT3=
EXTT4=
EXTT5=
EXTT6=
EXTT7=
EXTT8=
EXTT9=
EXTT10=
EXTT11=
EXTT12=
PLAYORDER=
